<?xml version="1.0" standalone="no"?>
<!DOCTYPE svg PUBLIC "-//W3C//DTD SVG 20010904//EN"
 "http://www.w3.org/TR/2001/REC-SVG-20010904/DTD/svg10.dtd">
<svg version="1.0" xmlns="http://www.w3.org/2000/svg"
 width="24.000000pt" height="24.000000pt" viewBox="0 0 700.000000 700.000000"
 preserveAspectRatio="xMidYMid meet">
<metadata>
Created by potrace 1.14, written by Peter Selinger 2001-2017
</metadata>
<g transform="translate(0.000000,700.000000) scale(0.100000,-0.100000)"
fill="#f0e3d3ff" stroke="none">
<path d="M3402 6534 c-85 -22 -125 -46 -212 -128 -25 -23 -101 -93 -170 -156
-69 -63 -134 -126 -146 -140 -32 -38 -127 -189 -152 -242 -22 -44 -28 -49 -80
-64 -31 -8 -77 -21 -102 -29 -54 -16 -100 -27 -192 -45 -26 -5 -69 -12 -95
-15 -26 -3 -59 -8 -73 -10 -98 -16 -310 -29 -825 -50 -181 -7 -378 -21 -440
-30 -16 -3 -48 -7 -70 -10 -22 -3 -51 -7 -65 -10 -14 -3 -43 -8 -65 -11 -22
-3 -88 -22 -147 -41 -116 -38 -96 -24 -405 -289 -104 -89 -126 -205 -68 -364
40 -112 75 -171 141 -240 74 -78 175 -133 304 -165 175 -45 313 -24 447 66 64
43 287 271 328 334 74 114 68 218 -18 317 l-32 37 -41 -37 c-22 -20 -67 -61
-99 -90 l-59 -52 -1 -108 c-2 -144 -4 -149 -68 -159 -217 -37 -456 67 -542
237 -33 66 -65 168 -65 210 0 35 2 37 47 48 55 14 64 16 193 36 134 21 260 33
450 41 69 3 159 8 200 10 41 3 118 7 170 10 235 14 396 25 440 30 19 2 56 7
82 10 166 18 423 66 535 98 45 14 84 23 86 20 2 -2 -9 -47 -25 -100 -15 -53
-30 -106 -33 -117 -2 -12 -18 -75 -35 -141 -45 -179 -104 -426 -126 -531 -2
-12 -20 -95 -39 -185 -20 -90 -38 -180 -41 -199 -12 -71 -84 -411 -129 -605
-26 -110 -48 -210 -51 -222 -2 -13 -20 -85 -38 -160 -19 -76 -51 -206 -71
-289 l-37 -151 -61 -37 c-34 -20 -152 -93 -262 -163 -110 -69 -263 -164 -339
-210 -457 -278 -773 -614 -880 -933 -87 -261 -92 -425 -18 -579 32 -65 120
-154 187 -189 80 -41 114 -39 350 21 211 54 312 95 450 186 156 101 355 349
473 587 42 86 145 335 168 409 2 6 33 102 70 215 36 113 72 225 80 250 32 109
114 410 119 436 16 89 11 84 165 162 538 272 967 527 1373 815 54 38 99 68
101 66 2 -2 6 -17 9 -34 19 -114 100 -287 186 -399 109 -141 208 -219 581
-461 195 -127 387 -280 513 -410 80 -82 155 -236 180 -366 16 -89 20 -291 6
-364 -5 -27 -12 -63 -15 -78 -11 -66 -70 -229 -113 -317 -43 -86 -158 -265
-199 -310 -108 -115 -183 -184 -217 -200 -48 -22 -143 -60 -165 -66 -90 -25
-213 -46 -295 -48 -231 -8 -390 59 -575 244 -213 213 -265 417 -154 607 22 37
31 44 101 66 104 33 164 47 268 63 40 6 112 42 171 86 73 55 197 176 215 210
22 43 24 59 7 53 -7 -2 -30 -7 -51 -10 -134 -19 -351 -82 -442 -127 -22 -12
-146 -93 -275 -181 -269 -185 -366 -272 -417 -377 -42 -87 -55 -138 -54 -227
1 -134 46 -263 134 -382 105 -143 303 -294 452 -347 74 -26 90 -28 230 -28
249 0 450 55 660 182 62 38 256 171 265 182 3 3 43 35 90 70 217 165 338 280
458 437 136 179 215 338 267 538 86 334 79 575 -25 801 -69 149 -150 246 -330
394 -41 34 -84 70 -95 79 -48 40 -204 147 -370 256 -176 115 -231 155 -309
225 -144 129 -235 267 -295 445 l-30 90 32 25 c62 49 343 293 447 389 58 54
137 126 175 161 116 104 234 228 405 425 19 22 40 45 45 51 129 145 221 287
320 497 42 89 75 182 90 256 12 59 8 168 -10 220 -19 59 -87 135 -140 157
-143 59 -424 -79 -656 -324 -75 -79 -249 -267 -282 -306 -10 -12 -40 -43 -66
-71 -61 -65 -263 -327 -331 -430 -143 -217 -291 -539 -345 -750 -5 -16 -9 -34
-11 -40 -20 -66 -45 -221 -51 -303 l-6 -102 -156 -103 c-133 -88 -570 -372
-681 -442 -155 -99 -718 -411 -726 -402 -1 1 22 108 52 237 80 350 172 794
238 1160 10 52 26 138 37 190 10 52 21 111 24 130 3 19 11 55 16 80 6 25 13
56 15 70 3 14 14 62 24 107 11 46 21 93 24 105 2 13 12 52 21 88 9 36 19 72
21 80 1 8 20 82 41 164 43 170 16 143 218 222 138 53 234 112 258 157 10 18
32 42 50 54 18 13 42 31 53 41 10 9 30 24 44 33 67 43 180 163 209 221 36 70
39 115 12 174 -50 110 -182 163 -319 128z m-137 -360 c56 -17 112 -91 88 -115
-6 -6 -339 -139 -349 -139 -13 0 96 230 118 247 23 19 91 22 143 7z m2102
-234 c44 -26 64 -70 70 -150 14 -181 -98 -407 -366 -740 -111 -138 -166 -195
-232 -237 -66 -43 -89 -74 -70 -96 9 -12 -33 -50 -228 -206 -131 -105 -240
-191 -242 -191 -3 0 -3 26 -2 58 13 294 154 713 348 1032 186 308 306 424 528
516 94 38 148 43 194 14z m-3497 -3422 c-114 -398 -209 -654 -354 -943 -126
-253 -220 -391 -358 -527 -103 -103 -118 -107 -219 -55 -107 55 -163 165 -162
322 1 235 121 525 314 761 111 136 334 322 533 443 36 22 76 50 90 62 31 27
199 129 204 124 2 -2 -20 -86 -48 -187z"/>
<path d="M6100 6295 l-94 -94 33 -130 c44 -173 44 -231 -5 -446 -2 -11 -18
-65 -34 -120 -17 -55 -32 -108 -35 -118 -24 -102 -159 -399 -247 -545 -58 -98
-192 -301 -250 -379 -64 -88 -32 -75 111 45 99 82 115 99 195 206 170 228 255
370 354 592 83 187 160 423 188 579 20 116 4 272 -40 377 -19 44 -69 128 -76
128 -3 0 -48 -43 -100 -95z"/>
<path d="M6762 5882 l-93 -88 -4 -119 c-4 -97 -20 -220 -39 -290 -77 -287
-157 -463 -319 -705 -88 -131 -286 -386 -362 -466 -5 -6 -53 -57 -105 -114
-52 -57 -131 -141 -175 -188 -170 -180 -195 -207 -186 -210 20 -7 298 197 355
259 151 166 233 254 246 268 8 9 66 75 129 146 62 72 123 141 135 155 55 62
264 348 301 411 169 291 207 382 255 604 34 159 13 426 -34 425 -6 -1 -53 -40
-104 -88z"/>
</g>
</svg>
